<?xml version="1.0" encoding="utf-8"?>
<!-- Generator: Adobe Illustrator 25.2.1, SVG Export Plug-In . SVG Version: 6.00 Build 0)  -->
<svg version="1.1" id="Layer_1" xmlns="http://www.w3.org/2000/svg" xmlns:xlink="http://www.w3.org/1999/xlink" x="0px" y="0px"
	 viewBox="0 0 1040.5 540" style="enable-background:new 0 0 1040.5 540;" xml:space="preserve">
<style type="text/css">
	.st0{fill:none;stroke:#000000;stroke-miterlimit:10;}
</style>
<path class="st0" d="M319.82,269.45c0.02,19.26-15.57,34.89-34.83,34.91h-29.96c-19.26,0.01-34.88-15.59-34.89-34.85
	s15.6-34.88,34.85-34.89h29.93c19.25,0,34.85,15.59,34.87,34.84L319.82,269.45z"/>
<path class="st0" d="M359.49,357.32c11.9,15.15,9.26,37.07-5.88,48.97c-0.51,0.39-1.03,0.78-1.56,1.15
	c-24.45,18.13-55.34,27.92-87.81,27.92c-2.92,0-5.85-0.07-8.79-0.23c-34.56-1.87-67.38-14.48-92.41-35.52
	c-46.71-39.25-66.78-105.17-51.15-167.87c12-48.26,42.78-88.54,84.35-110.51c24.85-13.13,54.46-19.26,83.35-17.25
	c32,2.22,60.91,14.48,81.47,34.52c13.79,13.44,14.08,35.52,0.64,49.31s-35.52,14.08-49.31,0.64h0.03
	c-18.24-17.78-55.73-20.27-83.56-5.56c-24.07,12.72-42,36.68-49.27,65.73c-9.23,37,1.89,75.32,28.34,97.55
	c13.34,11.21,32,18.23,51.3,19.27c19.48,1,37.7-3.93,51.3-14C325.68,339.54,347.6,342.18,359.49,357.32z"/>
<path class="st0" d="M808.53,237.36c-55.23,0-100,44.77-100,100c0,55.23,44.77,100,100,100c55.23,0,100-44.77,100-100
	C908.53,282.13,863.76,237.36,808.53,237.36z M852.24,337.37c0,0.75-0.02,1.5-0.06,2.24c-0.04,0.75-0.09,1.49-0.17,2.23
	c-0.07,0.73-0.16,1.45-0.28,2.17c-0.11,0.73-0.24,1.45-0.38,2.17c-0.15,0.71-0.31,1.41-0.49,2.1v0.01c-0.18,0.7-0.37,1.38-0.59,2.06
	c-0.01,0.01,0,0.02,0,0.02c-0.11,0.34-0.21,0.68-0.33,1.02c-0.34,1.01-0.72,2.01-1.14,2.98c-0.01,0-0.01,0,0,0.01
	c-0.62,1.47-1.32,2.9-2.1,4.28c-0.51,0.92-1.06,1.82-1.64,2.7c0,0,0,0,0,0.01c-0.58,0.87-1.18,1.73-1.83,2.56
	c-0.31,0.42-0.64,0.83-0.98,1.24c-8.02,9.72-20.16,15.92-33.74,15.91c-16.51-0.01-30.88-9.16-38.31-22.67
	c-2.08-3.78-3.62-7.9-4.51-12.26c-0.59-2.85-0.89-5.81-0.89-8.83c0-3.01,0.31-5.94,0.89-8.78c0.32-1.56,0.72-3.09,1.2-4.58
	c0.19-0.59,0.39-1.18,0.61-1.77c0.43-1.17,0.91-2.31,1.44-3.43c0-0.01,0-0.01,0-0.01c0.52-1.12,1.09-2.21,1.72-3.27
	c0.16-0.27,0.32-0.54,0.47-0.81c0.31-0.52,0.64-1.03,0.99-1.54c0-0.01,0-0.01,0-0.01c0.5-0.77,1.04-1.51,1.6-2.24
	c0.01,0,0-0.01,0-0.01c0.55-0.73,1.13-1.44,1.74-2.13c0.01,0,0.01,0,0-0.01c0.39-0.46,0.8-0.91,1.23-1.35c0.01,0,0-0.01,0-0.01
	c7.97-8.48,19.29-13.77,31.84-13.76v0.03c24.14,0.01,43.7,19.58,43.71,43.72V337.37z"/>
<path class="st0" d="M658.37,357.31c11.9,15.15,9.26,37.07-5.88,48.97c-0.51,0.39-1.03,0.78-1.56,1.15
	c-24.44,18.14-55.33,27.93-87.8,27.93c-2.92,0-5.85-0.07-8.79-0.23c-34.56-1.87-67.38-14.48-92.41-35.52
	c-46.74-39.25-66.74-105.17-51.14-167.87c12-48.26,42.77-88.54,84.34-110.51c24.86-13.13,54.46-19.26,83.35-17.25
	c32,2.22,60.91,14.48,81.48,34.52c13.79,13.44,14.08,35.52,0.63,49.31c-13.44,13.8-35.52,14.08-49.31,0.64
	c-18.24-17.78-55.72-20.27-83.56-5.56c-24.07,12.72-42,36.68-49.27,65.73c-9.26,37.03,1.89,75.32,28.35,97.55l0.02-0.01
	c13.33,11.21,32,18.23,51.29,19.27c19.48,1,37.7-3.93,51.3-14C624.56,339.53,646.48,342.17,658.37,357.31z"/>
</svg>
