<svg xmlns="http://www.w3.org/2000/svg" data-name="Layer 1" viewBox="0 0 48 60" x="0px" y="0px"><title>superhero solid icons</title><path d="M17.87,17.05a4.39,4.39,0,1,0-6.19.54A4.39,4.39,0,0,0,17.87,17.05Z"/><path d="M24.87,30.51c-2.33-1.31-4.71-2.62-7.09-3.89a2.19,2.19,0,0,1-.36,0h0L29,44.52s2.43-2.29,5.53-5.47L25.1,30.73A2.39,2.39,0,0,1,24.87,30.51Z"/><path d="M46.75,31.16,31.81,22.41a2.28,2.28,0,0,0-.45-.2C29.55,20,27.75,17.76,26,15.49l4.12-1.58a2,2,0,0,0,.8-.57,2.14,2.14,0,0,0,.37-.68A2,2,0,0,0,31,11L26.4,4.32a2,2,0,0,0-3.21,2.23l3.19,4.6L23.3,12.33h0a1.28,1.28,0,0,0-.85.5l-7,8.35L2.23,19.31a2,2,0,1,0-.55,3.87l15.91,2.27a2.36,2.36,0,0,0,.46,0c2.54,1.35,5.07,2.73,7.55,4.14a2.23,2.23,0,0,0,.26.27l13,11.48a2.53,2.53,0,0,0,3.56-.22l0-.05a2.51,2.51,0,0,0-.26-3.51L31.39,28l12.81,7.5A2.54,2.54,0,0,0,47.41,35a2.71,2.71,0,0,0,.24-.35A2.53,2.53,0,0,0,46.75,31.16ZM23.81,22l-.46,2.12L22,22.49l-2.16.22,1.14-1.85-.88-2,2.11.51L23.78,18,24,20.11l1.87,1.1Z"/><path d="M27.86,16c1.39,1.77,2.8,3.53,4.21,5.24l.33.17,11.72,6.86c1.87-2.42,3.26-4.61,3.61-6.13l-17.64-7Z"/><text x="0" y="63" fill="#000000" font-size="5px" font-weight="bold" font-family="'Helvetica Neue', Helvetica, Arial-Unicode, Arial, Sans-serif">Created by tulpahn</text><text x="0" y="68" fill="#000000" font-size="5px" font-weight="bold" font-family="'Helvetica Neue', Helvetica, Arial-Unicode, Arial, Sans-serif">from the Noun Project</text></svg>