<svg xmlns="http://www.w3.org/2000/svg" viewBox="0 0 672 840" x="0px" y="0px"><path d="M56,574V329a35,35,0,0,1,35-35H441a35,35,0,0,1,35,35V574a35,35,0,0,1-35,35H91A35,35,0,0,1,56,574Zm87.5-308A101.5,101.5,0,1,0,42,164.5,101.5,101.5,0,0,0,143.5,266Zm245-203A101.5,101.5,0,1,0,490,164.5,101.5,101.5,0,0,0,388.5,63ZM630,616a7.03,7.03,0,0,0,4.679-1.788A7.236,7.236,0,0,0,637,608.774V294.2a7.213,7.213,0,0,0-2.386-5.47,7.005,7.005,0,0,0-8.54-.527L503.148,371.477A14,14,0,0,0,497,383.068V519.932a14,14,0,0,0,6.148,11.591l122.926,83.272A7,7,0,0,0,630,616Z"/><text x="0" y="687" fill="#000000" font-size="5px" font-weight="bold" font-family="'Helvetica Neue', Helvetica, Arial-Unicode, Arial, Sans-serif">Created by Dooder</text><text x="0" y="692" fill="#000000" font-size="5px" font-weight="bold" font-family="'Helvetica Neue', Helvetica, Arial-Unicode, Arial, Sans-serif">from the Noun Project</text></svg>