<?xml version="1.0" encoding="utf-8"?>
<!-- Generator: Adobe Illustrator 25.2.1, SVG Export Plug-In . SVG Version: 6.00 Build 0)  -->
<svg version="1.1" id="Layer_1" xmlns="http://www.w3.org/2000/svg" xmlns:xlink="http://www.w3.org/1999/xlink" x="0px" y="0px"
	 viewBox="0 0 864 864" style="enable-background:new 0 0 864 864;" xml:space="preserve">
<style type="text/css">
	.st0{fill:none;stroke:#000000;stroke-miterlimit:10;}
</style>
<g>
	<g>
		<path class="st0" d="M339.48,194.85L230.05,85.42c-1.26-1.26-3.3-1.26-4.55,0L116.07,194.85c-29.74,29.74-29.09,78.36,1.96,107.27
			c29.57,27.54,76.12,25.42,104.69-3.15l3.95-3.95c0.62-0.62,1.62-0.62,2.23,0l3.95,3.95c28.57,28.57,75.12,30.69,104.69,3.15
			C368.56,273.2,369.22,224.59,339.48,194.85z M277.36,355.68c-15.82-2.57-31.12-19.78-43.26-31.93l-5.18-5.18
			c-0.63-0.63-1.65-0.63-2.28,0l-5.19,5.18c-12.15,12.15-27.45,29.36-43.26,31.93c-0.78,0.13-1.36,0.77-1.36,1.56v11.49
			c0,0.89,0.72,1.61,1.61,1.61h98.68c0.89,0,1.61-0.72,1.61-1.61v-11.49C278.72,356.45,278.14,355.81,277.36,355.68z"/>
	</g>
	<path class="st0" d="M732.85,500.12c-38.78-23.7-84.8-6.82-107.88,37.35c-23.08-44.16-69.11-61.05-107.89-37.35
		c-42.15,25.78-59.73,89.7-39.22,142.72c20.38,52.81,145.9,135.88,147.05,136.63l0.03,0.05l0.03-0.03l0.03,0.03v-0.05
		c1.17-0.77,126.69-83.82,147.07-136.63C792.55,589.84,775,525.92,732.85,500.12z"/>
	<path class="st0" d="M367.8,624.39c0,0-51.25-41.18-70.47-58.57c-17.39-17.39-57.66-69.55-57.66-69.55
		c-4.58-6.41-12.81-8.24-19.22-3.66c-1.83,0.92-2.75,1.83-3.66,3.66c0,0-40.27,52.17-57.66,69.55
		c-17.39,17.39-69.55,57.66-69.55,57.66c-6.41,3.66-8.24,11.9-3.66,18.3c0.92,1.83,2.75,2.75,3.66,3.66c0,0,52.17,38.44,69.55,55.83
		c17.39,17.39,57.66,71.38,57.66,71.38c3.66,6.41,11.9,8.24,18.3,3.66c1.83-0.92,2.75-1.83,3.66-3.66c0,0,40.27-52.17,57.66-70.47
		c17.39-18.3,69.55-55.83,69.55-55.83c6.41-3.66,8.24-12.81,3.66-18.3C369.63,626.22,368.71,625.3,367.8,624.39z"/>
	<path class="st0" d="M705.69,297.03c-22.8,5.5-46.83-2.44-61.69-20.56l21.58,93.56h-81.44l21.68-93.45
		c-21.48,26.06-59.96,29.73-86.02,8.25c-25.96-21.48-29.62-59.96-8.14-86.02c11.61-14.05,28.81-22.19,47.03-22.19
		c4.89,0,9.77,0.61,14.46,1.73c-17.92-28.61-9.26-66.27,19.34-84.19c28.61-17.92,66.27-9.26,84.19,19.34
		c12.42,19.85,12.42,45,0,64.85c32.78-8.04,65.87,12.11,73.81,44.79C758.52,255.9,738.47,288.99,705.69,297.03z"/>
</g>
</svg>
