<?xml version="1.0" encoding="utf-8"?>
<!-- Generator: Adobe Illustrator 25.2.1, SVG Export Plug-In . SVG Version: 6.00 Build 0)  -->
<svg version="1.1" id="Layer_1" xmlns="http://www.w3.org/2000/svg" xmlns:xlink="http://www.w3.org/1999/xlink" x="0px" y="0px"
	 viewBox="0 0 48 60" style="enable-background:new 0 0 48 60;" xml:space="preserve">
<style type="text/css">
	.st0{fill:none;stroke:#000000;stroke-width:0.25;stroke-miterlimit:10;}
</style>
<path class="st0" d="M23.4,15.23c2.66,0,4.82-2.16,4.82-4.82c0-2.66-2.16-4.82-4.82-4.82c-2.66,0-4.82,2.16-4.82,4.82c0,0,0,0,0,0
	C18.58,13.07,20.73,15.23,23.4,15.23z"/>
<path class="st0" d="M16.89,32.33c-1.08,0.4-2.3,0.22-3.22-0.48c-0.64-0.48-1.24-1.01-1.81-1.57L7.73,43.59c0,0,2.12,0.24,5.27,0.53
	L16.89,32.33z"/>
<path class="st0" d="M32.72,23.49c-0.07-0.85-0.9-1.82-2.27-2.69c-0.78,3.62-1.5,7.26-2.15,10.86c0.04,0.09,0.08,0.18,0.11,0.28
	l5.95,18.02c0,0,0,0,0,0.01c0.47,1.45-0.32,3-1.76,3.48c-0.29,0.09-0.58,0.14-0.87,0.14c-1.2,0-2.26-0.76-2.63-1.9l-5.74-17.4
	l-5.69,17.3c-0.4,1.12-1.46,1.86-2.64,1.85c-0.3,0-0.59-0.05-0.87-0.14c-0.01,0-0.01,0-0.01,0c-1.45-0.48-2.23-2.04-1.75-3.49
	l5.94-18c0.03-0.11,0.08-0.21,0.13-0.31c-0.65-3.54-1.36-7.12-2.12-10.68c-1.36,0.87-2.18,1.84-2.25,2.68C14,24.59,15,26,17,27.5
	c0.93,0.72,1.12,2.06,0.41,3c-0.72,0.93-2.06,1.11-3,0.4c-3.27-2.5-4.81-5.11-4.57-7.77c0.2-1.73,1.03-3.32,2.35-4.47
	c0.97-0.89,2.06-1.65,3.25-2.23c0.17-0.09,0.37-0.16,0.57-0.19c0.21-0.08,0.43-0.12,0.66-0.11h13.46c0.22-0.01,0.44,0.02,0.65,0.1
	c0.21,0.03,0.41,0.09,0.61,0.19c1.18,0.59,2.27,1.35,3.25,2.24c1.31,1.14,2.15,2.74,2.36,4.47c0.23,2.66-1.31,5.27-4.58,7.77
	c-0.38,0.29-0.83,0.44-1.3,0.44c-0.68,0-1.32-0.31-1.73-0.85c-0.71-0.95-0.52-2.29,0.43-3C31.79,25.97,32.82,24.56,32.72,23.49z"/>
<path class="st0" d="M21.2,44.73c1.45,0.08,2.91,0.14,4.38,0.18l-2.22-6.73L21.2,44.73z"/>
<path class="st0" d="M33.16,31.85c-0.57,0.44-1.28,0.68-2,0.69c-0.45,0-0.89-0.09-1.31-0.26l4.08,12.51c1.99-0.06,3.95-0.46,5.8-1.2
	l-4.5-13.57C34.58,30.68,33.89,31.29,33.16,31.85z"/>
</svg>
