<?xml version="1.0" encoding="utf-8"?>
<!-- Generator: Adobe Illustrator 25.2.1, SVG Export Plug-In . SVG Version: 6.00 Build 0)  -->
<svg version="1.1" id="Layer_1" xmlns="http://www.w3.org/2000/svg" xmlns:xlink="http://www.w3.org/1999/xlink" x="0px" y="0px"
	 viewBox="0 0 672 840" style="enable-background:new 0 0 672 840;" xml:space="preserve">
<style type="text/css">
	.st0{fill:none;stroke:#000000;stroke-miterlimit:10;}
</style>
<path class="st0" d="M56,574V329c0-19.33,15.67-35,35-35l0,0h350c19.33,0,35,15.67,35,35l0,0v245c0,19.33-15.67,35-35,35H91
	C71.67,609,56,593.33,56,574z M143.5,266c56.06,0,101.5-45.44,101.5-101.5S199.56,63,143.5,63S42,108.44,42,164.5
	S87.44,266,143.5,266z M388.5,63C332.44,63,287,108.44,287,164.5S332.44,266,388.5,266S490,220.56,490,164.5S444.56,63,388.5,63z
	 M630,616c1.73,0,3.39-0.64,4.68-1.79c1.51-1.4,2.36-3.38,2.32-5.44V294.2c0.03-2.08-0.84-4.08-2.39-5.47
	c-2.4-2.1-5.9-2.31-8.54-0.53l-122.93,83.27c-3.85,2.6-6.15,6.95-6.15,11.59v136.86c0,4.64,2.3,8.99,6.15,11.59l122.93,83.27
	C627.23,615.58,628.6,616,630,616z"/>
</svg>
